<?xml version="1.0" standalone="no"?>
<!DOCTYPE svg PUBLIC "-//W3C//DTD SVG 20010904//EN"
 "http://www.w3.org/TR/2001/REC-SVG-20010904/DTD/svg10.dtd">
<svg version="1.0" xmlns="http://www.w3.org/2000/svg"
 width="1087.000000pt" height="931.000000pt" viewBox="0 0 1087.000000 931.000000"
 preserveAspectRatio="xMidYMid meet">
<metadata>
Created by potrace 1.16, written by Peter Selinger 2001-2019
</metadata>
<g transform="translate(0.000000,931.000000) scale(0.100000,-0.100000)"
fill="#000000" stroke="none">
<path d="M2412 7609 c-320 -41 -569 -236 -669 -524 -27 -79 -27 -85 -31 -355
-4 -298 3 -360 51 -480 41 -101 88 -171 172 -255 91 -91 175 -144 290 -182 71
-24 96 -27 220 -27 120 -1 151 2 215 22 129 41 206 88 308 188 l92 91 0 -139
0 -138 175 0 175 0 0 495 0 495 -470 0 -470 0 0 -175 0 -175 196 0 195 0 -6
-22 c-30 -99 -119 -203 -211 -245 -190 -87 -409 -7 -498 181 -40 84 -48 155
-44 367 4 170 7 201 26 249 30 75 86 146 152 191 211 145 535 80 666 -132 21
-33 42 -58 48 -56 6 2 89 30 184 63 l173 59 -5 29 c-19 96 -172 278 -291 348
-189 110 -423 156 -643 127z"/>
<path d="M3680 6695 l0 -885 570 0 570 0 0 185 0 185 -365 0 -365 0 0 170 0
170 325 0 325 0 0 180 0 180 -325 0 -325 0 0 170 0 170 360 0 360 0 0 180 0
180 -565 0 -565 0 0 -885z"/>
<path d="M4980 7400 l0 -180 670 0 670 0 0 180 0 180 -670 0 -670 0 0 -180z"/>
<path d="M5450 6920 l0 -170 200 0 200 0 0 170 0 170 -200 0 -200 0 0 -170z"/>
<path d="M5450 6450 l0 -170 200 0 200 0 0 170 0 170 -200 0 -200 0 0 -170z"/>
<path d="M5450 5985 l0 -165 200 0 200 0 0 165 0 165 -200 0 -200 0 0 -165z"/>
<path d="M4280 5393 l0 -190 75 -12 c162 -26 309 -136 378 -283 167 -350 -44
-751 -412 -784 -194 -18 -401 100 -488 277 -34 69 -63 172 -63 227 l0 32 -206
0 -207 0 6 -92 c8 -120 27 -190 86 -313 160 -335 506 -535 885 -512 242 15
444 104 607 266 196 196 291 469 261 747 -49 450 -389 779 -844 819 l-78 7 0
-189z"/>
<path d="M1708 5508 c11 -18 160 -265 331 -548 l311 -514 0 -333 0 -333 205 0
205 0 0 333 0 332 330 543 c182 299 330 545 330 547 0 3 -103 5 -228 5 l-228
0 -204 -354 c-187 -323 -206 -352 -217 -333 -7 12 -97 171 -201 352 l-190 330
-232 3 -232 2 20 -32z"/>
<path d="M5440 4956 c0 -626 2 -662 52 -779 84 -200 264 -355 478 -413 101
-28 320 -26 425 4 250 72 428 251 498 500 20 74 21 103 25 675 l4 597 -206 0
-205 0 -3 -592 -3 -593 -28 -55 c-49 -95 -110 -146 -213 -176 -153 -44 -322
35 -393 185 l-26 56 -3 588 -3 587 -199 0 -200 0 0 -584z"/>
<path d="M7298 5426 c-60 -63 -108 -117 -108 -121 0 -4 42 -52 93 -106 50 -55
94 -105 95 -110 2 -5 -27 -42 -64 -82 -38 -39 -82 -86 -98 -104 l-29 -32 101
-109 100 -108 -99 -108 -100 -109 43 -46 c23 -25 69 -74 102 -108 l59 -62 -97
-105 c-54 -58 -96 -110 -94 -115 1 -5 49 -59 106 -120 l104 -111 209 0 c115 0
209 4 209 9 0 5 -7 14 -15 21 -8 7 -56 57 -106 111 l-90 98 95 103 c53 57 96
107 96 111 0 5 -43 54 -95 110 -52 55 -95 103 -95 106 0 3 43 53 95 109 52 57
95 107 95 110 -1 4 -45 54 -100 112 l-98 104 100 108 100 108 -99 106 c-54 58
-97 109 -95 113 2 3 50 57 108 119 l106 112 -214 0 -213 -1 -107 -113z"/>
<path d="M7920 5361 l0 -179 138 -4 c148 -4 174 -12 224 -65 82 -86 75 -221
-15 -300 -49 -43 -91 -53 -229 -53 l-118 0 0 -170 0 -170 213 -320 212 -319
249 -1 c197 0 246 3 239 13 -16 20 -449 631 -456 643 -4 8 20 25 66 46 132 63
245 191 288 327 32 99 30 252 -3 347 -65 184 -210 315 -404 364 -61 16 -111
20 -241 20 l-163 0 0 -179z"/>
<path d="M3895 5513 c-101 -53 -142 -148 -111 -255 46 -158 253 -200 363 -75
92 104 52 280 -74 333 -43 19 -141 17 -178 -3z"/>
<path d="M3525 5142 c-81 -38 -120 -113 -113 -213 14 -194 270 -261 383 -100
24 34 30 54 33 109 4 83 -23 142 -87 187 -55 38 -153 46 -216 17z"/>
<path d="M2415 3533 c-328 -45 -576 -240 -673 -531 -25 -74 -26 -89 -30 -353
-3 -253 -2 -283 17 -365 52 -218 195 -405 381 -499 120 -60 200 -79 335 -80
69 0 143 6 175 14 143 36 272 113 374 223 l66 70 0 -136 0 -136 175 0 175 0 0
490 0 490 -470 0 -470 0 0 -170 0 -170 195 0 c149 0 195 -3 195 -12 0 -32 -63
-142 -105 -183 -25 -26 -76 -61 -113 -78 -61 -29 -76 -32 -162 -32 -84 0 -102
3 -152 28 -108 53 -180 146 -213 274 -21 80 -21 396 0 476 20 77 48 130 98
184 193 210 599 164 739 -84 23 -40 35 -53 47 -48 9 4 90 32 180 63 90 31 166
63 169 70 10 27 -69 163 -136 234 -132 140 -288 219 -497 253 -83 14 -229 18
-300 8z"/>
<path d="M5452 3378 c3 -124 6 -138 35 -200 22 -46 51 -86 97 -130 36 -35 66
-68 66 -73 0 -5 -32 -41 -70 -81 -113 -116 -149 -226 -116 -355 20 -77 57
-136 131 -209 30 -30 55 -57 55 -61 0 -4 -25 -31 -55 -60 -111 -105 -145 -192
-145 -366 l0 -103 205 0 205 0 0 81 c0 44 5 90 11 102 7 12 37 49 69 82 69 73
96 123 109 204 21 128 -15 228 -120 337 l-72 74 70 73 c78 82 109 139 123 220
20 122 -20 236 -116 335 -31 31 -60 67 -65 80 -5 13 -9 59 -9 103 l0 79 -206
0 -206 0 4 -132z"/>
<path d="M6290 2625 l0 -885 349 0 c262 0 369 4 432 15 250 43 459 171 588
358 46 67 105 198 127 282 28 105 26 360 -4 468 -83 300 -309 520 -624 607
-111 30 -242 39 -570 40 l-298 0 0 -885z m745 500 c171 -45 300 -181 346 -365
19 -77 17 -222 -5 -295 -50 -168 -153 -282 -305 -337 -44 -16 -89 -22 -213
-26 l-158 -4 0 521 0 521 138 0 c92 0 158 -5 197 -15z"/>
<path d="M3680 2917 c0 -617 2 -653 47 -767 56 -140 173 -279 294 -347 222
-126 515 -135 744 -23 186 91 313 248 365 454 19 75 20 112 20 673 l0 593
-200 0 -199 0 -3 -587 -3 -588 -26 -55 c-37 -80 -81 -125 -157 -162 -59 -29
-76 -33 -147 -33 -65 1 -91 5 -136 27 -72 33 -134 94 -168 167 l-26 56 -3 588
-3 587 -199 0 -200 0 0 -583z"/>
<path d="M8040 2620 l0 -880 565 0 565 0 0 180 0 180 -365 0 -365 0 0 170 0
170 325 0 325 0 0 180 0 180 -325 0 -325 0 0 170 0 170 360 0 360 0 0 180 0
180 -560 0 -560 0 0 -880z"/>
</g>
</svg>
