<svg xmlns="http://www.w3.org/2000/svg" width="1087" height="931" viewBox="0 0 1087 931" version="1.1"><path d="M 242 169.969 C 219.439 172.857, 198.803 184.012, 186.539 199.950 C 183.960 203.301, 180.131 209.746, 178.031 214.271 C 171.851 227.584, 170.999 233.339, 171.007 261.697 C 171.013 283.166, 171.287 287.639, 173.046 294.976 C 179.279 320.979, 197.311 340.918, 222.500 349.661 C 229.808 352.198, 231.754 352.439, 245 352.451 C 258.707 352.463, 259.979 352.293, 268.261 349.347 C 280.665 344.935, 287.208 340.754, 297.238 330.831 L 306 322.162 306 336.081 L 306 350 323.500 350 L 341 350 341 300.500 L 341 251 293.976 251 L 246.953 251 247.226 268.250 L 247.500 285.500 266.750 285.772 C 279.760 285.955, 286 286.395, 286 287.129 C 286 290.401, 279.504 301.190, 274.994 305.409 C 256.143 323.042, 226.311 318.318, 215.122 295.929 C 210.502 286.683, 209.779 281.195, 210.213 258.669 C 210.562 240.565, 210.836 237.908, 212.885 232.718 C 219.128 216.904, 232.886 207.356, 251 206.265 C 269.646 205.143, 287.304 213.710, 295.206 227.712 C 296.884 230.684, 298.761 232.936, 299.378 232.716 C 299.995 232.496, 308.259 229.658, 317.742 226.408 C 327.892 222.930, 334.988 219.977, 334.992 219.229 C 335.008 216.640, 328.544 204.835, 324.070 199.282 C 310.128 181.976, 285.801 170.828, 259.361 169.629 C 253.388 169.358, 245.575 169.511, 242 169.969 M 368.245 261.250 L 368.500 349.500 425.250 349.758 L 482 350.017 482 331.508 L 482 313 445.500 313 L 409 313 409 296 L 409 279 441.500 279 L 474 279 474 261 L 474 243 441.500 243 L 409 243 409 226 L 409 209 445 209 L 481 209 481 191 L 481 173 424.495 173 L 367.989 173 368.245 261.250 M 498 191 L 498 209 565 209 L 632 209 632 191 L 632 173 565 173 L 498 173 498 191 M 545 239 L 545 256 565 256 L 585 256 585 239 L 585 222 565 222 L 545 222 545 239 M 545 286 L 545 303 565 303 L 585 303 585 286 L 585 269 565 269 L 545 269 545 286 M 545 332.500 L 545 349 565 349 L 585 349 585 332.500 L 585 316 565 316 L 545 316 545 332.500 M 428 391.663 L 428 410.584 436.259 412.143 C 447.680 414.299, 455.194 418.175, 463.115 425.994 C 473.870 436.610, 479 449.267, 479 465.184 C 479 481.071, 473.287 494.761, 462.412 504.934 C 431.224 534.108, 381.807 514.615, 377.379 471.392 L 376.724 465 356.215 465 L 335.706 465 336.273 474.250 C 337.187 489.148, 343.114 505.304, 352.506 518.500 C 357.432 525.420, 368.358 536.163, 375.241 540.853 C 382.448 545.764, 395.579 551.730, 404.500 554.147 C 415.066 557.010, 438.923 557.319, 449.237 554.728 C 484.900 545.766, 510.041 520.608, 518.680 485.237 C 520.939 475.989, 520.924 453.949, 518.651 444.637 C 508.960 404.923, 476.640 377.327, 435.250 373.425 L 428 372.742 428 391.663 M 170.248 379.256 C 171.061 380.496, 185.962 405.072, 203.363 433.868 L 235 486.225 235 519.612 L 235 553 255.500 553 L 276 553 276 519.686 L 276 486.372 306.313 436.436 C 322.985 408.971, 337.878 384.363, 339.408 381.750 L 342.190 377 319.345 377.008 L 296.500 377.016 276.053 412.449 C 258.908 442.160, 255.424 447.609, 254.479 446.191 C 253.859 445.261, 244.678 429.313, 234.077 410.750 L 214.803 377 191.787 377 L 168.770 377 170.248 379.256 M 544 435.042 C 544 500.977, 544.117 502.275, 551.462 517.500 C 563.992 543.474, 591.717 558.692, 622.812 556.662 C 634.809 555.879, 642.195 553.975, 652.500 549.007 C 666.187 542.409, 677.460 531.124, 683.977 517.500 C 691.453 501.869, 691.296 503.490, 691.748 436.750 L 692.152 377 671.606 377 L 651.061 377 650.780 436.250 C 650.504 494.563, 650.466 495.574, 648.339 500.176 C 645.265 506.827, 638.705 513.512, 632.143 516.681 C 627.395 518.974, 625.149 519.414, 617.982 519.453 C 610.332 519.495, 608.787 519.167, 602.818 516.229 C 595.205 512.484, 590.814 507.962, 587.101 500.046 L 584.500 494.500 584.212 435.750 L 583.924 377 563.962 377 L 544 377 544 435.042 M 731.419 387.250 C 725.893 392.887, 720.787 398.283, 720.072 399.241 C 718.922 400.779, 719.943 402.209, 728.892 411.582 L 739.014 422.183 728.827 433.137 L 718.641 444.092 725.587 451.296 C 729.407 455.258, 733.997 460.106, 735.787 462.068 L 739.040 465.637 729.105 476.485 L 719.171 487.333 728.835 497.682 C 734.151 503.375, 738.500 508.459, 738.500 508.982 C 738.500 509.504, 734.337 514.413, 729.250 519.891 C 724.163 525.368, 720 530.147, 720 530.509 C 720 530.871, 724.837 536.295, 730.750 542.561 L 741.500 553.954 762.250 553.977 C 773.663 553.990, 783 553.654, 783 553.232 C 783 552.810, 778.275 547.755, 772.500 542 C 766.725 536.245, 762 531.142, 762 530.660 C 762 530.178, 766.275 525.168, 771.500 519.525 C 776.725 513.883, 781 508.896, 781 508.443 C 781 507.990, 776.725 503.268, 771.500 497.950 C 766.275 492.631, 762 487.768, 762 487.143 C 762 486.518, 765.244 482.517, 769.209 478.253 C 773.174 473.989, 777.520 469.277, 778.866 467.781 L 781.314 465.063 771.063 454.420 L 760.812 443.777 764.182 440.138 C 766.035 438.137, 770.649 433.207, 774.435 429.182 L 781.318 421.865 773.887 414.182 C 769.800 409.957, 765.134 405.027, 763.518 403.226 L 760.580 399.952 772.024 388.476 L 783.467 377 762.466 377 L 741.464 377 731.419 387.250 M 792 394.887 L 792 412.773 805.750 413.164 C 817.930 413.511, 819.975 413.824, 823.661 415.912 C 831.022 420.081, 834.556 427.283, 833.787 436.552 C 833.226 443.325, 829.468 449.184, 823.749 452.204 C 820.078 454.143, 817.628 454.499, 805.750 454.820 L 792 455.192 792 472.158 L 792 489.125 813.148 520.651 C 824.780 537.990, 834.801 552.370, 835.418 552.607 C 836.035 552.844, 847.159 552.916, 860.139 552.769 L 883.739 552.500 860.422 520 C 847.597 502.125, 837.081 487.231, 837.052 486.902 C 837.024 486.573, 840.263 484.687, 844.250 482.711 C 863.440 473.201, 875.117 455.097, 875.346 434.500 C 875.401 429.550, 874.841 423.025, 874.101 420 C 870.473 405.168, 858.704 390.517, 845 383.774 C 833.813 378.270, 827.080 377.032, 808.250 377.015 L 792 377 792 394.887 M 389.429 379.893 C 380.684 383.865, 375.679 394.324, 377.964 403.849 C 381.823 419.935, 401.699 425.417, 413.777 413.727 C 416.929 410.676, 420.007 403.173, 419.994 398.568 C 419.975 391.207, 414.534 383.057, 407.509 379.865 C 402.363 377.527, 394.611 377.539, 389.429 379.893 M 352 417.250 C 345.128 420.921, 341.640 426.588, 341.203 434.793 C 340.905 440.393, 341.243 442.243, 343.250 446 C 346.921 452.872, 352.588 456.360, 360.793 456.797 C 366.393 457.095, 368.243 456.757, 372 454.750 C 378.872 451.079, 382.360 445.412, 382.797 437.207 C 383.095 431.607, 382.757 429.757, 380.750 426 C 377.079 419.128, 371.412 415.640, 363.207 415.203 C 357.607 414.905, 355.757 415.243, 352 417.250 M 236.894 578.486 C 206.351 584.299, 183.893 602.972, 174.339 630.500 C 171.613 638.354, 171.556 638.999, 171.197 665.823 C 170.893 688.525, 171.111 694.400, 172.482 700.563 C 180.773 737.830, 212.699 762.889, 249 760.624 C 259.984 759.939, 267.595 757.916, 277.500 753.050 C 286.893 748.436, 295.675 741.598, 301.692 734.213 L 306 728.925 306 742.963 L 306 757 323.500 757 L 341 757 341 708 L 341 659 294 659 L 247 659 247 676 L 247 693 266.608 693 L 286.217 693 285.550 695.750 C 283.214 705.380, 274.481 715.673, 264.500 720.561 C 259.078 723.216, 257.536 723.500, 248.500 723.500 C 239.736 723.500, 237.791 723.168, 232.764 720.812 C 221.966 715.751, 213.797 704.956, 211.115 692.201 C 209.667 685.316, 209.673 653.638, 211.124 646.799 C 215.329 626.983, 232.262 614.046, 254.040 614.012 C 271.887 613.984, 287.624 622.276, 295.200 635.701 L 298.137 640.904 316.261 634.625 C 326.229 631.172, 334.561 627.816, 334.777 627.169 C 335.626 624.623, 327.580 610.790, 321.315 604.023 C 305.684 587.140, 284.505 578.322, 257.500 577.456 C 248.694 577.173, 242.046 577.505, 236.894 578.486 M 545.174 593.250 C 545.684 609.907, 547.593 614.699, 557.988 625.420 C 561.844 629.397, 565 633.005, 565 633.436 C 565 633.868, 561.655 637.776, 557.568 642.121 C 549.675 650.512, 546.689 656.325, 545.441 665.733 C 544.025 676.409, 550.060 689.715, 560.193 698.259 C 562.837 700.489, 565 703.101, 565 704.063 C 565 705.026, 562.786 707.668, 560.080 709.933 C 553.689 715.284, 548.410 723.330, 546.514 730.609 C 545.637 733.976, 545 740.749, 545 746.710 L 545 757 565.500 757 L 586 757 586 748.934 C 586 744.498, 586.510 739.886, 587.134 738.684 C 587.758 737.483, 590.923 733.711, 594.167 730.302 C 603.273 720.735, 606.884 710.077, 604.981 698.386 C 603.650 690.207, 600.511 684.544, 592.821 676.448 C 589.069 672.499, 586 668.979, 586 668.625 C 586 668.272, 588.862 665.175, 592.360 661.742 C 602.863 651.434, 606.872 640.479, 604.844 627.629 C 603.610 619.810, 600.886 614.761, 593.996 607.520 C 590.846 604.209, 587.758 600.517, 587.134 599.316 C 586.510 598.114, 586 593.277, 586 588.566 L 586 580 565.384 580 L 544.768 580 545.174 593.250 M 629.667 580.667 C 629.300 581.033, 629 620.858, 629 669.167 L 629 757 663.869 757 C 702.454 757, 709.697 756.279, 724.164 750.999 C 754.347 739.984, 774.965 715.109, 780.053 683.573 C 781.575 674.138, 780.775 654.924, 778.490 646 C 776.017 636.344, 767.916 620.412, 761.626 612.833 C 746.580 594.703, 724.209 583.483, 698.188 581.015 C 686.364 579.894, 630.722 579.611, 629.667 580.667 M 368 639.553 C 368 706.001, 367.988 705.872, 375.695 721.933 C 391.258 754.360, 432.556 769.360, 469.326 755.940 C 489.113 748.719, 504.558 732.982, 511.568 712.901 L 514.500 704.500 514.786 642.750 L 515.072 581 495.067 581 L 475.061 581 474.780 640.250 L 474.500 699.500 471.683 705 C 467.835 712.510, 462.901 717.314, 455.626 720.632 C 450.584 722.931, 448.081 723.432, 441.479 723.463 C 434.399 723.496, 432.679 723.116, 426.815 720.229 C 419.205 716.483, 414.814 711.961, 411.101 704.046 L 408.500 698.500 408.219 639.750 L 407.939 581 387.969 581 L 368 581 368 639.553 M 804 669 L 804 757 860.500 757 L 917 757 917 739 L 917 721 880.500 721 L 844 721 844 704 L 844 687 876.500 687 L 909 687 909 669 L 909 651 876.500 651 L 844 651 844 634 L 844 617 880 617 L 916 617 916 599 L 916 581 860 581 L 804 581 804 669 M 670 669 L 670 721 682.316 721 C 689.090 721, 697.303 720.512, 700.566 719.916 C 720.728 716.234, 735.057 700.682, 738.854 678.362 C 740.309 669.809, 740.310 668.195, 738.862 659.683 C 735.221 638.284, 723.343 624.257, 704.068 618.595 C 700.210 617.462, 694.490 617, 684.318 617 L 670 617 670 669" stroke="none" fill="#ff5434" fill-rule="evenodd"/><path d="" stroke="none" fill="#fc5434" fill-rule="evenodd"/></svg>